# xmcd CD database file
#
# Track frame offsets:
#	150
#	21545
#	46229
#	71845
#	101340
#	134663
#	149223
#	172926
#	192160
#	215432
#
# Disc length: 3465 seconds
#
# Revision: 0
# Processed by: cddbd v1.5.2PL0 Copyright (c) Steve Scherf et al.
# Submitted via: CDex 1.70beta2
#
DISCID=9c0d870a
DTITLE=Moloko - Statues
DYEAR=2003
DGENRE=Rhythmic Soul
TTITLE0=01 Familiar Feeling.
TTITLE1=02 Come On
TTITLE2=03 Cannot Contain This
TTITLE3=04 Statues
TTITLE4=05 Forever More
TTITLE5=06 Blow By Blow
TTITLE6=07 100%
TTITLE7=08 The Only Ones
TTITLE8=09 I Want You
TTITLE9=10 Over And Over
EXTD=YEAR: 2003
EXTT0=
EXTT1=
EXTT2=
EXTT3=
EXTT4=
EXTT5=
EXTT6=
EXTT7=
EXTT8=
EXTT9=
PLAYORDER=
